999
Corrected by fix_cardpads_dxf.py
0
SECTION
2
HEADER
9
$ACADVER
1
AC1014
9
$INSUNITS
70
4
0
ENDSEC
0
SECTION
2
TABLES
0
TABLE
2
LAYER
70
1
0
LAYER
2
Sketch
70
0
62
7
6
CONTINUOUS
0
ENDTAB
0
ENDSEC
0
SECTION
2
ENTITIES
0
LINE
5
A00
8
Sketch
10
-4.010000000
20
-4.615000000
30
0.0
11
4.010000000
21
-4.615000000
31
0.0
0
ARC
5
A01
8
Sketch
10
4.010000000
20
-3.815000000
30
0.0
40
0.800000000
50
-90.000000000
51
0.000000000
0
LINE
5
A02
8
Sketch
10
4.810000000
20
-3.815000000
30
0.0
11
4.810000000
21
3.815000000
31
0.0
0
ARC
5
A03
8
Sketch
10
4.010000000
20
3.815000000
30
0.0
40
0.800000000
50
0.000000000
51
90.000000000
0
LINE
5
A04
8
Sketch
10
4.010000000
20
4.615000000
30
0.0
11
-4.010000000
21
4.615000000
31
0.0
0
ARC
5
A05
8
Sketch
10
-4.010000000
20
3.815000000
30
0.0
40
0.800000000
50
90.000000000
51
180.000000000
0
LINE
5
A06
8
Sketch
10
-4.810000000
20
3.815000000
30
0.0
11
-4.810000000
21
-3.815000000
31
0.0
0
ARC
5
A07
8
Sketch
10
-4.010000000
20
-3.815000000
30
0.0
40
0.800000000
50
180.000000000
51
-90.000000000
0
LINE
5
A08
8
Sketch
10
4.610000000
20
3.817500117
30
0.0
11
4.610000000
21
2.300000000
31
0.0
0
ARC
5
A09
8
Sketch
10
4.010000000
20
3.815000117
30
0.0
40
0.600000000
50
0.000000000
51
89.964279444
0
LINE
5
A0A
8
Sketch
10
0.200000000
20
4.417375545
30
0.0
11
4.010124688
21
4.416666667
31
0.0
0
LINE
5
A0B
8
Sketch
10
0.200000000
20
4.417375545
30
0.0
11
0.200000000
21
1.508655439
31
0.0
0
LINE
5
A0C
8
Sketch
10
0.200000000
20
1.508655439
30
0.0
11
0.200000000
21
1.108655439
31
0.0
0
LINE
5
A0D
8
Sketch
10
0.200000000
20
1.108655439
30
0.0
11
-0.459220119
21
1.108655439
31
0.0
0
LINE
5
A0E
8
Sketch
10
-0.459220119
20
1.108655439
30
0.0
11
-1.109421826
21
0.457365513
31
0.0
0
LINE
5
A0F
8
Sketch
10
-1.109421826
20
0.457365513
30
0.0
11
-1.107001056
21
-0.463193980
31
0.0
0
LINE
5
A10
8
Sketch
10
-1.107001056
20
-0.463193980
30
0.0
11
-0.455454219
21
-1.110207843
31
0.0
0
LINE
5
A11
8
Sketch
10
-0.455454219
20
-1.110207843
30
0.0
11
0.459220119
21
-1.108655439
31
0.0
0
LINE
5
A12
8
Sketch
10
0.459220119
20
-1.108655439
30
0.0
11
1.108655439
21
-0.459220119
31
0.0
0
LINE
5
A13
8
Sketch
10
1.108655439
20
-0.459220119
30
0.0
11
1.108655439
21
0.459220119
31
0.0
0
LINE
5
A14
8
Sketch
10
1.108655439
20
0.459220119
30
0.0
11
0.852825547
21
0.662585261
31
0.0
0
ARC
5
A15
8
Sketch
10
1.058910000
20
0.921836000
30
0.0
40
0.331182348
50
142.562225537
51
-128.482006604
0
LINE
5
A16
8
Sketch
10
0.888937881
20
1.244623102
30
0.0
11
0.795946575
21
1.123161569
31
0.0
0
LINE
5
A17
8
Sketch
10
1.944314550
20
2.300000000
30
0.0
11
0.888937881
21
1.244623102
31
0.0
0
LINE
5
A18
8
Sketch
10
4.610000000
20
2.300000000
30
0.0
11
1.944314550
21
2.300000000
31
0.0
0
LINE
5
A19
8
Sketch
10
4.610000000
20
2.300000000
30
0.0
11
4.610000000
21
3.817500117
31
0.0
0
ARC
5
A1A
8
Sketch
10
4.010000000
20
3.820000117
30
0.0
40
0.600000000
50
0.000000001
51
90.035720556
0
LINE
5
A1B
8
Sketch
10
-0.200000000
20
4.417375545
30
0.0
11
-0.200000000
21
1.508655439
31
0.0
0
LINE
5
A1C
8
Sketch
10
-0.200000000
20
1.508655439
30
0.0
11
-0.459220119
21
1.508655439
31
0.0
0
ARC
5
A1D
8
Sketch
10
-0.459220119
20
1.108655439
30
0.0
40
0.400000000
50
90.000000000
51
135.000000000
0
LINE
5
A1E
8
Sketch
10
-0.742062831
20
1.391498151
30
0.0
11
-0.888937779
21
1.244623204
31
0.0
0
LINE
5
A1F
8
Sketch
10
-1.944314575
20
2.300000000
30
0.0
11
-0.888937779
21
1.244623204
31
0.0
0
LINE
5
A20
8
Sketch
10
-4.610000000
20
2.300000000
30
0.0
11
-1.944314575
21
2.300000000
31
0.0
0
LINE
5
A21
8
Sketch
10
-4.610000000
20
3.815000117
30
0.0
11
-4.610000000
21
2.300000000
31
0.0
0
ARC
5
A22
8
Sketch
10
-4.010000000
20
3.815000117
30
0.0
40
0.600000000
50
90.035720556
51
180.000000000
0
LINE
5
A23
8
Sketch
10
-0.200000000
20
4.417375545
30
0.0
11
-4.010374065
21
4.415000000
31
0.0
0
LINE
5
A24
8
Sketch
10
-4.610000000
20
1.900000000
30
0.0
11
-2.110000000
21
1.900000000
31
0.0
0
LINE
5
A25
8
Sketch
10
-2.110000000
20
1.900000000
30
0.0
11
-1.171780491
21
0.961780491
31
0.0
0
LINE
5
A26
8
Sketch
10
-1.171780491
20
0.961780491
30
0.0
11
-1.391498151
21
0.742062831
31
0.0
0
ARC
5
A27
8
Sketch
10
-1.108655439
20
0.459220119
30
0.0
40
0.400000000
50
135.000000000
51
180.000000000
0
LINE
5
A28
8
Sketch
10
-1.508655439
20
0.459220119
30
0.0
11
-1.508655439
21
0.200000000
31
0.0
0
LINE
5
A29
8
Sketch
10
-4.610000000
20
0.200000000
30
0.0
11
-1.508655439
21
0.200000000
31
0.0
0
LINE
5
A2A
8
Sketch
10
-4.610000000
20
1.900000000
30
0.0
11
-4.610000000
21
0.200000000
31
0.0
0
LINE
5
A2B
8
Sketch
10
-4.610000000
20
-0.200000000
30
0.0
11
-1.508655439
21
-0.200000000
31
0.0
0
LINE
5
A2C
8
Sketch
10
-1.508655439
20
-0.200000000
30
0.0
11
-1.508655439
21
-0.459220119
31
0.0
0
ARC
5
A2D
8
Sketch
10
-1.108655439
20
-0.459220119
30
0.0
40
0.400000000
50
180.000000000
51
-135.000000000
0
LINE
5
A2E
8
Sketch
10
-1.391498151
20
-0.742062831
30
0.0
11
-1.171780491
21
-0.961780491
31
0.0
0
LINE
5
A2F
8
Sketch
10
-2.110000000
20
-1.900000000
30
0.0
11
-1.171780491
21
-0.961780491
31
0.0
0
LINE
5
A30
8
Sketch
10
-4.610000000
20
-1.900000000
30
0.0
11
-2.110000000
21
-1.900000000
31
0.0
0
LINE
5
A31
8
Sketch
10
-4.610000000
20
-0.200000000
30
0.0
11
-4.610000000
21
-1.900000000
31
0.0
0
LINE
5
A32
8
Sketch
10
-4.010000000
20
-4.415000000
30
0.0
11
-0.200000000
21
-4.416187772
31
0.0
0
ARC
5
A33
8
Sketch
10
-4.010000000
20
-3.815000000
30
0.0
40
0.600000000
50
180.000000000
51
-90.000000000
0
LINE
5
A34
8
Sketch
10
-4.610000000
20
-2.300000000
30
0.0
11
-4.610000000
21
-3.815000000
31
0.0
0
LINE
5
A35
8
Sketch
10
-4.610000000
20
-2.300000000
30
0.0
11
-1.944314575
21
-2.300000000
31
0.0
0
LINE
5
A36
8
Sketch
10
-1.944314575
20
-2.300000000
30
0.0
11
-0.888937779
21
-1.244623204
31
0.0
0
LINE
5
A37
8
Sketch
10
-0.888937779
20
-1.244623204
30
0.0
11
-0.742062831
21
-1.391498151
31
0.0
0
ARC
5
A38
8
Sketch
10
-0.459220119
20
-1.108655439
30
0.0
40
0.400000000
50
-135.000000000
51
-90.000000000
0
LINE
5
A39
8
Sketch
10
-0.459220119
20
-1.508655439
30
0.0
11
-0.200000000
21
-1.508655439
31
0.0
0
LINE
5
A3A
8
Sketch
10
-0.200000000
20
-4.416187772
30
0.0
11
-0.200000000
21
-1.508655439
31
0.0
0
ARC
5
A3B
8
Sketch
10
4.010000000
20
-3.815000000
30
0.0
40
0.600000000
50
-90.000000000
51
0.000000001
0
LINE
5
A3C
8
Sketch
10
0.200000000
20
-4.416187772
30
0.0
11
4.010000000
21
-4.415000000
31
0.0
0
LINE
5
A3D
8
Sketch
10
0.200000000
20
-4.416187772
30
0.0
11
0.200000000
21
-1.508655439
31
0.0
0
LINE
5
A3E
8
Sketch
10
0.200000000
20
-1.508655439
30
0.0
11
0.459220119
21
-1.508655439
31
0.0
0
ARC
5
A3F
8
Sketch
10
0.459220119
20
-1.108655439
30
0.0
40
0.400000000
50
-90.000000000
51
-45.000000000
0
LINE
5
A40
8
Sketch
10
0.742062831
20
-1.391498151
30
0.0
11
0.888937779
21
-1.244623204
31
0.0
0
LINE
5
A41
8
Sketch
10
1.944314575
20
-2.300000000
30
0.0
11
0.888937779
21
-1.244623204
31
0.0
0
LINE
5
A42
8
Sketch
10
4.610000000
20
-2.300000000
30
0.0
11
1.944314575
21
-2.300000000
31
0.0
0
LINE
5
A43
8
Sketch
10
4.610000000
20
-2.300000000
30
0.0
11
4.610000000
21
-3.815000000
31
0.0
0
ARC
5
A44
8
Sketch
10
1.108655439
20
-0.459220119
30
0.0
40
0.400000000
50
-45.000000000
51
-0.000000000
0
LINE
5
A45
8
Sketch
10
1.508655439
20
-0.459220119
30
0.0
11
1.508655439
21
-0.200000000
31
0.0
0
LINE
5
A46
8
Sketch
10
4.610000000
20
-0.200000000
30
0.0
11
1.508655439
21
-0.200000000
31
0.0
0
LINE
5
A47
8
Sketch
10
4.610000000
20
-1.900000000
30
0.0
11
4.610000000
21
-0.200000000
31
0.0
0
LINE
5
A48
8
Sketch
10
4.610000000
20
-1.900000000
30
0.0
11
2.110000000
21
-1.900000000
31
0.0
0
LINE
5
A49
8
Sketch
10
2.110000000
20
-1.900000000
30
0.0
11
1.171780491
21
-0.961780491
31
0.0
0
LINE
5
A4A
8
Sketch
10
1.171780491
20
-0.961780491
30
0.0
11
1.391498151
21
-0.742062831
31
0.0
0
LINE
5
A4B
8
Sketch
10
4.610000000
20
0.200000000
30
0.0
11
4.610000000
21
1.900000000
31
0.0
0
LINE
5
A4C
8
Sketch
10
4.610000000
20
0.200000000
30
0.0
11
1.508655439
21
0.200000000
31
0.0
0
LINE
5
A4D
8
Sketch
10
1.508655439
20
0.200000000
30
0.0
11
1.508655439
21
0.459220119
31
0.0
0
ARC
5
A4E
8
Sketch
10
1.108655439
20
0.459220119
30
0.0
40
0.400000000
50
-0.000000000
51
45.000000000
0
LINE
5
A4F
8
Sketch
10
2.110000000
20
1.900000000
30
0.0
11
1.171780848
21
0.961780245
31
0.0
0
LINE
5
A50
8
Sketch
10
4.610000000
20
1.900000000
30
0.0
11
2.110000000
21
1.900000000
31
0.0
0
LINE
5
A51
8
Sketch
10
1.391498076
20
0.742062916
30
0.0
11
1.171780848
21
0.961780245
31
0.0
0
ENDSEC
0
EOF
